<?xml version="1.0" encoding="utf-8"?>
<!-- Generator: Adobe Illustrator 24.3.0, SVG Export Plug-In . SVG Version: 6.00 Build 0)  -->
<svg version="1.1" id="Ebene_1" xmlns="http://www.w3.org/2000/svg" xmlns:xlink="http://www.w3.org/1999/xlink" x="0px" y="0px"
	 viewBox="0 0 1298.77 672.61" style="enable-background:new 0 0 1298.77 672.61;" xml:space="preserve">
<style type="text/css">
	.st0{fill:#4951F2;}
	.st1{opacity:0.42;fill:#40FFA4;}
	.st2{fill:#40FFA4;}
	.st3 { fill: #090E23; }
	@media (prefers-color-scheme: dark) {
		html[data-color-mode="auto"] .st3 {
			fill: #ffffff;
		}
	}
	html[data-color-mode="dark"] .st3, {
		fill: #ffffff;
	}
</style>
<path class="st0" d="M204.96,368.93c0,22.64,18.35,40.99,40.99,40.99s40.99-18.35,40.99-40.99V245.95h-81.98V368.93z"/>
<path class="st1" d="M204.96,327.94c0,22.64,18.35,40.99,40.99,40.99s40.99-18.35,40.99-40.99v-81.98h-81.98V327.94z"/>
<path class="st1" d="M204.96,286.94c0,22.64,18.35,40.99,40.99,40.99s40.99-18.35,40.99-40.99v-40.99h-81.98V286.94z"/>
<circle class="st2" cx="245.95" cy="245.95" r="40.99"/>
<circle class="st0" cx="332.48" cy="426.66" r="40.99"/>
<g>
	<rect x="459.11" y="237.6" class="st3" width="23.11" height="130.76"/>
	<rect x="507.77" y="270.29" class="st3" width="23.11" height="98.07"/>
	<path class="st3" d="M519.39,231.28c-3.66,0-6.81,1.22-9.45,3.67s-3.96,5.42-3.96,8.91c0,3.45,1.31,6.4,3.93,8.84
		c2.62,2.45,5.78,3.67,9.48,3.67c3.66,0,6.8-1.22,9.42-3.67c2.62-2.45,3.93-5.39,3.93-8.84c0-3.49-1.31-6.46-3.93-8.91
		C526.19,232.5,523.05,231.28,519.39,231.28z"/>
	<path class="st3" d="M600.52,349.91c-1.21,0.22-2.54,0.32-3.99,0.32c-1.92,0-3.66-0.3-5.24-0.89c-1.57-0.59-2.84-1.71-3.8-3.35
		c-0.96-1.64-1.44-4.01-1.44-7.12v-50.7h19.35v-17.88h-19.35v-23.5h-23.11v23.5h-13.92v17.88h13.92v54.53
		c-0.04,6.13,1.29,11.24,3.99,15.32c2.7,4.09,6.37,7.1,11.01,9.03c4.64,1.94,9.85,2.82,15.64,2.65c3.28-0.08,6.05-0.38,8.33-0.89
		c2.28-0.51,4.03-0.98,5.27-1.4l-3.89-18.07C602.66,349.5,601.73,349.69,600.52,349.91z"/>
	<path class="st3" d="M677.12,312.43l-16.73-3.58c-4.98-1.15-8.54-2.62-10.69-4.41c-2.15-1.79-3.2-4.11-3.16-6.96
		c-0.04-3.32,1.56-6.02,4.82-8.11c3.26-2.09,7.29-3.13,12.1-3.13c3.58,0,6.6,0.57,9.07,1.72c2.47,1.15,4.44,2.66,5.91,4.53
		c1.47,1.87,2.5,3.87,3.1,6l21.07-2.3c-1.58-8.34-5.68-14.96-12.29-19.86c-6.62-4.89-15.68-7.34-27.17-7.34
		c-7.83,0-14.74,1.22-20.72,3.67c-5.98,2.45-10.64,5.9-13.98,10.34c-3.34,4.45-4.99,9.7-4.95,15.74c-0.04,7.15,2.19,13.06,6.7,17.72
		c4.51,4.66,11.47,7.97,20.88,9.93l16.73,3.51c4.51,0.98,7.84,2.38,9.99,4.21c2.15,1.83,3.22,4.15,3.22,6.96
		c0,3.32-1.67,6.11-5.01,8.37c-3.34,2.25-7.75,3.38-13.25,3.38c-5.32,0-9.64-1.13-12.96-3.38c-3.32-2.26-5.49-5.6-6.51-10.03
		l-22.54,2.17c1.4,9.03,5.77,16.06,13.09,21.1c7.32,5.04,16.99,7.56,28.99,7.56c8.17,0,15.41-1.32,21.7-3.96
		c6.3-2.64,11.23-6.31,14.78-11.02c3.55-4.7,5.35-10.14,5.4-16.31c-0.05-7.02-2.33-12.7-6.86-17.05
		C693.3,317.6,686.4,314.43,677.12,312.43z"/>
	<path class="st3" d="M767.87,349.91c-1.21,0.22-2.54,0.32-3.99,0.32c-1.91,0-3.66-0.3-5.24-0.89c-1.57-0.59-2.84-1.71-3.8-3.35
		s-1.44-4.01-1.44-7.12v-50.7h19.35v-17.88h-19.35v-23.5H730.3v23.5h-13.92v17.88h13.92v54.53c-0.04,6.13,1.29,11.24,3.99,15.32
		c2.7,4.09,6.37,7.1,11.01,9.03c4.64,1.94,9.86,2.82,15.64,2.65c3.28-0.08,6.05-0.38,8.33-0.89c2.28-0.51,4.03-0.98,5.27-1.4
		l-3.89-18.07C770.01,349.5,769.09,349.69,767.87,349.91z"/>
	<path class="st3" d="M861.01,276.13c-3.87-2.53-8.15-4.35-12.83-5.46c-4.68-1.11-9.39-1.66-14.11-1.66
		c-6.86,0-13.11,1.01-18.77,3.03c-5.66,2.02-10.45,5.05-14.37,9.07c-3.92,4.02-6.73,9.01-8.43,14.97l21.58,3.06
		c1.15-3.36,3.37-6.28,6.67-8.75c3.3-2.47,7.78-3.7,13.44-3.7c5.36,0,9.47,1.32,12.32,3.96c2.85,2.64,4.28,6.36,4.28,11.17v0.38
		c0,2.21-0.82,3.84-2.46,4.88c-1.64,1.04-4.25,1.81-7.82,2.3c-3.58,0.49-8.24,1.03-13.98,1.63c-4.77,0.51-9.37,1.33-13.82,2.46
		c-4.45,1.13-8.44,2.78-11.97,4.95c-3.53,2.17-6.32,5.07-8.37,8.69c-2.04,3.62-3.06,8.19-3.06,13.73c0,6.43,1.44,11.83,4.31,16.22
		c2.87,4.39,6.79,7.69,11.75,9.93s10.55,3.35,16.76,3.35c5.11,0,9.56-0.71,13.38-2.14c3.81-1.43,6.98-3.32,9.51-5.68
		c2.53-2.36,4.5-4.9,5.91-7.63h0.76v13.47h22.22v-65.64c0-6.51-1.18-11.94-3.54-16.28C868,282.1,864.88,278.66,861.01,276.13z
		 M850.85,333.18c0,3.62-0.93,6.96-2.78,10.03c-1.85,3.06-4.48,5.52-7.88,7.37c-3.41,1.85-7.43,2.78-12.07,2.78
		c-4.81,0-8.77-1.08-11.88-3.26s-4.66-5.38-4.66-9.64c0-2.98,0.78-5.42,2.36-7.31c1.57-1.89,3.72-3.37,6.45-4.44
		c2.72-1.06,5.81-1.83,9.26-2.3c1.53-0.21,3.34-0.47,5.43-0.77c2.09-0.3,4.19-0.64,6.32-1.02c2.13-0.38,4.06-0.83,5.78-1.34
		c1.72-0.51,2.95-1.06,3.67-1.66V333.18z"/>
	<path class="st3" d="M929.52,291.45c3.58-2.53,7.73-3.8,12.45-3.8c5.57,0,10.03,1.59,13.38,4.76c3.34,3.17,5.46,7.12,6.35,11.84
		h22.09c-0.51-7.07-2.6-13.25-6.26-18.55c-3.66-5.3-8.57-9.41-14.71-12.32c-6.15-2.91-13.21-4.37-21.17-4.37
		c-9.58,0-17.87,2.14-24.87,6.42c-7,4.28-12.42,10.24-16.25,17.88c-3.83,7.64-5.75,16.44-5.75,26.4c0,9.92,1.89,18.68,5.65,26.28
		c3.77,7.6,9.15,13.55,16.15,17.84c7,4.3,15.4,6.45,25.19,6.45c8.22,0,15.37-1.5,21.45-4.5c6.09-3,10.9-7.17,14.43-12.51
		c3.53-5.34,5.58-11.48,6.13-18.42H961.7c-0.68,3.53-1.94,6.53-3.77,9c-1.83,2.47-4.1,4.35-6.8,5.65c-2.7,1.3-5.76,1.95-9.16,1.95
		c-4.81,0-8.99-1.29-12.55-3.86c-3.55-2.57-6.31-6.26-8.27-11.04c-1.96-4.79-2.94-10.52-2.94-17.21c0-6.6,0.99-12.26,2.97-16.98
		C923.17,297.62,925.95,293.99,929.52,291.45z"/>
	<polygon class="st3" points="1066.17,368.36 1093.81,368.36 1053.56,312.62 1091.58,270.29 1064.57,270.29 1029.33,309.68 
		1027.73,309.68 1027.73,237.6 1004.62,237.6 1004.62,368.36 1027.73,368.36 1027.73,335.39 1036.14,326.38 	"/>
</g>
</svg>
